# xmcd
#
# Track frame offsets:
#	150
#	16578
#	32291
#	46816
#	61355
#	77059
#	93166
#	110494
#	128125
#	142724
#	159368
#	174589
#	190017
#	205893
#
# Disc length: 2933 seconds
#
# Revision: 1
# Processed by: cddbd v1.5.2PL0 Copyright (c) Steve Scherf et al.
# Submitted via: EZCDAudioConverter 1.0.8.1
#
DISCID=9f0b730e
DTITLE=Ben (Thai Country Women Artist) - Poor Dauther In Law
DYEAR=1900
DGENRE=Country
TTITLE0=Do-RE-Mi
TTITLE1=You Don't Know
TTITLE2=Raining And Sun Shine
TTITLE3=We Know Each Other
TTITLE4=Sunflower Love
TTITLE5=I Want To Have Someone
TTITLE6=Eating All Ot The Time
TTITLE7=Poor Love
TTITLE8=I Don't Drop A Diamond
TTITLE9=Under Shadow Of Tree
TTITLE10=Runaway
TTITLE11=Believe
TTITLE12=He Is Not Mine
TTITLE13=We Love Each Other
EXTD=
EXTT0=
EXTT1=
EXTT2=
EXTT3=
EXTT4=
EXTT5=
EXTT6=
EXTT7=
EXTT8=
EXTT9=
EXTT10=
EXTT11=
EXTT12=
EXTT13=
PLAYORDER=
